<svg xmlns="http://www.w3.org/2000/svg" width="108.14999999999998" height="35" viewBox="0 0 108.14999999999998 35"><rect class="svg__rect" x="0" y="0" width="45.32" height="35" fill="#31C4F3"/><rect class="svg__rect" x="43.32" y="0" width="64.82999999999998" height="35" fill="#389AD5"/><path class="svg__text" d="M13.95 18.19L13.95 18.19L13.95 17.39Q13.95 16.19 14.38 15.27Q14.80 14.35 15.60 13.85Q16.40 13.35 17.45 13.35L17.45 13.35Q18.86 13.35 19.73 14.12Q20.59 14.89 20.73 16.29L20.73 16.29L19.25 16.29Q19.14 15.37 18.71 14.96Q18.28 14.55 17.45 14.55L17.45 14.55Q16.48 14.55 15.97 15.26Q15.45 15.96 15.44 17.33L15.44 17.33L15.44 18.09Q15.44 19.47 15.93 20.20Q16.43 20.92 17.38 20.92L17.38 20.92Q18.25 20.92 18.69 20.53Q19.13 20.14 19.25 19.22L19.25 19.22L20.73 19.22Q20.60 20.59 19.72 21.35Q18.84 22.12 17.38 22.12L17.38 22.12Q16.36 22.12 15.59 21.63Q14.81 21.15 14.39 20.26Q13.97 19.37 13.95 18.19ZM26.09 19.60L24.73 19.60L24.73 18.67L26.26 18.67L26.60 16.84L25.18 16.84L25.18 15.91L26.78 15.91L27.24 13.47L28.22 13.47L27.76 15.91L29.08 15.91L29.53 13.47L30.51 13.47L30.06 15.91L31.27 15.91L31.27 16.84L29.88 16.84L29.54 18.67L30.83 18.67L30.83 19.60L29.36 19.60L28.92 22L27.94 22L28.39 19.60L27.07 19.60L26.63 22L25.64 22L26.09 19.60ZM27.59 16.84L27.25 18.67L28.56 18.67L28.90 16.84L27.59 16.84Z" fill="#FFFFFF"/><path class="svg__text" d="M56.99 20.75L56.99 20.75Q56.99 20.15 57.38 19.78Q57.77 19.41 58.36 19.41L58.36 19.41Q58.96 19.41 59.34 19.78Q59.73 20.15 59.73 20.75L59.73 20.75Q59.73 21.34 59.34 21.72Q58.95 22.11 58.36 22.11L58.36 22.11Q57.78 22.11 57.39 21.72Q56.99 21.34 56.99 20.75ZM66.72 22L64.39 22L64.39 13.60L66.34 13.60L70.05 18.07L70.05 13.60L72.38 13.60L72.38 22L70.43 22L66.72 17.52L66.72 22ZM84.29 22L77.54 22L77.54 13.60L84.13 13.60L84.13 15.44L79.90 15.44L79.90 16.85L83.63 16.85L83.63 18.63L79.90 18.63L79.90 20.17L84.29 20.17L84.29 22ZM90.88 15.48L88.30 15.48L88.30 13.60L95.82 13.60L95.82 15.48L93.26 15.48L93.26 22L90.88 22L90.88 15.48Z" fill="#FFFFFF" x="56.32"/></svg>