<svg xmlns="http://www.w3.org/2000/svg" width="75.53" height="35" viewBox="0 0 75.53 35"><rect class="svg__rect" x="0" y="0" width="75.53" height="35" fill="#E46C17"/><rect class="svg__rect" x="75.53" y="0" width="0" height="35" fill="#389AD5"/><path class="svg__text" d="M15.70 22L14.22 22L14.22 13.47L15.70 13.47L15.70 17.02L19.51 17.02L19.51 13.47L20.99 13.47L20.99 22L19.51 22L19.51 18.21L15.70 18.21L15.70 22ZM27.41 14.66L24.78 14.66L24.78 13.47L31.54 13.47L31.54 14.66L28.88 14.66L28.88 22L27.41 22L27.41 14.66ZM36.78 22L35.30 22L35.30 13.47L37.22 13.47L39.68 20.01L42.14 13.47L44.05 13.47L44.05 22L42.58 22L42.58 19.19L42.72 15.43L40.20 22L39.14 22L36.63 15.43L36.78 19.19L36.78 22ZM54.15 22L48.79 22L48.79 13.47L50.28 13.47L50.28 20.82L54.15 20.82L54.15 22ZM58.16 19.70L58.16 19.70L59.54 19.70Q59.62 20.32 59.98 20.65Q60.35 20.98 60.93 20.98L60.93 20.98Q61.59 20.98 61.96 20.51Q62.32 20.04 62.32 19.23L62.32 19.23Q62.32 18.46 61.92 18.00Q61.51 17.55 60.81 17.55L60.81 17.55Q60.42 17.55 60.15 17.65Q59.88 17.75 59.56 18.05L59.56 18.05L58.43 17.77L58.89 13.47L63.47 13.47L63.47 14.70L60.07 14.70L59.84 16.74Q60.43 16.40 61.17 16.40L61.17 16.40Q62.39 16.40 63.07 17.18Q63.75 17.96 63.75 19.28L63.75 19.28Q63.75 20.58 63.00 21.35Q62.25 22.12 60.94 22.12L60.94 22.12Q59.77 22.12 59.00 21.45Q58.23 20.79 58.16 19.70Z" fill="#FFFFFF"/><path class="svg__text" d="" fill="#FFFFFF" x="88.53"/></svg>