<svg xmlns="http://www.w3.org/2000/svg" width="109.1" height="35" viewBox="0 0 109.1 35"><rect class="svg__rect" x="0" y="0" width="67.18" height="35" fill="#419B5A"/><rect class="svg__rect" x="65.18" y="0" width="43.91999999999999" height="35" fill="#8FC965"/><path class="svg__text" d="M15.70 22L14.22 22L14.22 13.47L15.70 13.47L19.51 19.54L19.51 13.47L20.98 13.47L20.98 22L19.50 22L15.70 15.95L15.70 22ZM25.46 18.00L25.46 18.00L25.46 17.52Q25.46 16.28 25.90 15.32Q26.34 14.37 27.15 13.86Q27.95 13.35 28.99 13.35Q30.04 13.35 30.84 13.85Q31.65 14.35 32.09 15.29Q32.53 16.23 32.53 17.48L32.53 17.48L32.53 17.96Q32.53 19.21 32.10 20.16Q31.67 21.10 30.86 21.61Q30.06 22.12 29.01 22.12L29.01 22.12Q27.97 22.12 27.16 21.61Q26.35 21.10 25.90 20.17Q25.46 19.23 25.46 18.00ZM26.94 17.46L26.94 17.96Q26.94 19.36 27.49 20.13Q28.03 20.90 29.01 20.90L29.01 20.90Q29.99 20.90 30.52 20.15Q31.05 19.40 31.05 17.96L31.05 17.96L31.05 17.51Q31.05 16.09 30.52 15.34Q29.98 14.58 28.99 14.58L28.99 14.58Q28.03 14.58 27.49 15.33Q26.95 16.09 26.94 17.46L26.94 17.46ZM39.45 22L37.00 22L37.00 13.47L39.52 13.47Q40.65 13.47 41.52 13.97Q42.40 14.48 42.88 15.40Q43.36 16.33 43.36 17.52L43.36 17.52L43.36 17.95Q43.36 19.16 42.88 20.08Q42.39 21.00 41.50 21.50Q40.61 22 39.45 22L39.45 22ZM38.48 14.66L38.48 20.82L39.45 20.82Q40.61 20.82 41.24 20.09Q41.86 19.36 41.87 17.99L41.87 17.99L41.87 17.52Q41.87 16.13 41.27 15.40Q40.67 14.66 39.52 14.66L39.52 14.66L38.48 14.66ZM53.40 22L47.83 22L47.83 13.47L53.36 13.47L53.36 14.66L49.31 14.66L49.31 17.02L52.81 17.02L52.81 18.19L49.31 18.19L49.31 20.82L53.40 20.82L53.40 22Z" fill="#FFFFFF"/><path class="svg__text" d="M78.29 20.93L78.29 20.93L79.58 19.40Q80.25 20.27 81.03 20.27L81.03 20.27Q81.03 20.27 81.04 20.27L81.04 20.27Q81.55 20.27 81.82 19.96Q82.09 19.65 82.09 19.05L82.09 19.05L82.09 15.44L79.19 15.44L79.19 13.60L84.45 13.60L84.45 18.91Q84.45 20.54 83.62 21.36Q82.80 22.17 81.21 22.17L81.21 22.17Q80.28 22.17 79.53 21.85Q78.77 21.53 78.29 20.93ZM88.95 21.24L88.95 21.24L89.73 19.49Q90.29 19.86 91.03 20.09Q91.78 20.32 92.50 20.32L92.50 20.32Q93.86 20.32 93.87 19.64L93.87 19.64Q93.87 19.28 93.48 19.11Q93.09 18.93 92.22 18.74L92.22 18.74Q91.27 18.53 90.64 18.30Q90.00 18.06 89.55 17.55Q89.09 17.03 89.09 16.16L89.09 16.16Q89.09 15.39 89.51 14.77Q89.93 14.15 90.77 13.79Q91.60 13.43 92.81 13.43L92.81 13.43Q93.64 13.43 94.44 13.62Q95.25 13.80 95.86 14.17L95.86 14.17L95.13 15.93Q93.93 15.28 92.80 15.28L92.80 15.28Q92.09 15.28 91.77 15.49Q91.44 15.70 91.44 16.04L91.44 16.04Q91.44 16.37 91.83 16.54Q92.21 16.71 93.06 16.89L93.06 16.89Q94.02 17.10 94.65 17.33Q95.28 17.56 95.74 18.07Q96.21 18.58 96.21 19.46L96.21 19.46Q96.21 20.21 95.79 20.83Q95.37 21.44 94.53 21.80Q93.69 22.17 92.49 22.17L92.49 22.17Q91.47 22.17 90.51 21.92Q89.55 21.67 88.95 21.24Z" fill="#FFFFFF" x="78.18"/></svg>