<svg xmlns="http://www.w3.org/2000/svg" width="124.07" height="35" viewBox="0 0 124.07 35"><rect class="svg__rect" x="0" y="0" width="55.76" height="35" fill="#C755FC"/><rect class="svg__rect" x="53.76" y="0" width="70.31" height="35" fill="#6A228F"/><path class="svg__text" d="M13.78 19.42L13.78 19.42L15.27 19.42Q15.27 20.15 15.75 20.55Q16.23 20.95 17.12 20.95L17.12 20.95Q17.90 20.95 18.29 20.63Q18.68 20.32 18.68 19.80L18.68 19.80Q18.68 19.24 18.28 18.94Q17.89 18.63 16.85 18.32Q15.82 18.01 15.21 17.63L15.21 17.63Q14.05 16.90 14.05 15.72L14.05 15.72Q14.05 14.69 14.89 14.02Q15.73 13.35 17.07 13.35L17.07 13.35Q17.96 13.35 18.66 13.68Q19.36 14.01 19.75 14.61Q20.15 15.22 20.15 15.96L20.15 15.96L18.68 15.96Q18.68 15.29 18.26 14.91Q17.84 14.54 17.06 14.54L17.06 14.54Q16.33 14.54 15.93 14.85Q15.53 15.16 15.53 15.71L15.53 15.71Q15.53 16.18 15.96 16.50Q16.40 16.81 17.39 17.10Q18.39 17.40 18.99 17.78Q19.60 18.16 19.88 18.65Q20.16 19.13 20.16 19.79L20.16 19.79Q20.16 20.86 19.34 21.49Q18.52 22.12 17.12 22.12L17.12 22.12Q16.20 22.12 15.42 21.77Q14.64 21.43 14.21 20.83Q13.78 20.22 13.78 19.42ZM25.93 22L24.45 22L24.45 13.47L25.93 13.47L25.93 17.02L29.74 17.02L29.74 13.47L31.22 13.47L31.22 22L29.74 22L29.74 18.21L25.93 18.21L25.93 22ZM41.54 22L35.96 22L35.96 13.47L41.50 13.47L41.50 14.66L37.44 14.66L37.44 17.02L40.95 17.02L40.95 18.19L37.44 18.19L37.44 20.82L41.54 20.82L41.54 22Z" fill="#FFFFFF"/><path class="svg__text" d="M69.74 15.48L67.16 15.48L67.16 13.60L74.68 13.60L74.68 15.48L72.11 15.48L72.11 22L69.74 22L69.74 15.48ZM81.43 22L79.05 22L79.05 13.60L81.43 13.60L81.43 16.76L84.67 16.76L84.67 13.60L87.04 13.60L87.04 22L84.67 22L84.67 18.72L81.43 18.72L81.43 22ZM98.95 22L92.21 22L92.21 13.60L98.80 13.60L98.80 15.44L94.56 15.44L94.56 16.85L98.29 16.85L98.29 18.63L94.56 18.63L94.56 20.17L98.95 20.17L98.95 22ZM105.88 18.95L102.68 13.60L105.18 13.60L107.18 16.94L109.17 13.60L111.47 13.60L108.25 18.99L108.25 22L105.88 22L105.88 18.95Z" fill="#FFFFFF" x="66.75999999999999"/></svg>