<svg xmlns="http://www.w3.org/2000/svg" width="153.81" height="35" viewBox="0 0 153.81 35"><rect class="svg__rect" x="0" y="0" width="77.43" height="35" fill="#55CDFC"/><rect class="svg__rect" x="75.43" y="0" width="78.38" height="35" fill="#F7A8B8"/><path class="svg__text" d="M16.25 14.66L13.61 14.66L13.61 13.47L20.38 13.47L20.38 14.66L17.72 14.66L17.72 22L16.25 22L16.25 14.66ZM25.62 22L24.14 22L24.14 13.47L27.14 13.47Q28.61 13.47 29.42 14.13Q30.22 14.79 30.22 16.05L30.22 16.05Q30.22 16.90 29.81 17.48Q29.39 18.06 28.65 18.37L28.65 18.37L30.57 21.92L30.57 22L28.98 22L27.27 18.71L25.62 18.71L25.62 22ZM25.62 14.66L25.62 17.52L27.14 17.52Q27.89 17.52 28.31 17.15Q28.74 16.77 28.74 16.11L28.74 16.11Q28.74 15.43 28.35 15.05Q27.96 14.68 27.18 14.66L27.18 14.66L25.62 14.66ZM35.39 22L33.85 22L37.07 13.47L38.40 13.47L41.63 22L40.09 22L39.39 20.01L36.08 20.01L35.39 22ZM37.74 15.28L36.50 18.82L38.97 18.82L37.74 15.28ZM47.07 22L45.59 22L45.59 13.47L47.07 13.47L50.89 19.54L50.89 13.47L52.36 13.47L52.36 22L50.87 22L47.07 15.95L47.07 22ZM56.66 19.42L56.66 19.42L58.14 19.42Q58.14 20.15 58.63 20.55Q59.11 20.95 60.00 20.95L60.00 20.95Q60.78 20.95 61.17 20.63Q61.56 20.32 61.56 19.80L61.56 19.80Q61.56 19.24 61.16 18.94Q60.76 18.63 59.73 18.32Q58.70 18.01 58.09 17.63L58.09 17.63Q56.93 16.90 56.93 15.72L56.93 15.72Q56.93 14.69 57.77 14.02Q58.61 13.35 59.95 13.35L59.95 13.35Q60.84 13.35 61.54 13.68Q62.23 14.01 62.63 14.61Q63.03 15.22 63.03 15.96L63.03 15.96L61.56 15.96Q61.56 15.29 61.14 14.91Q60.72 14.54 59.94 14.54L59.94 14.54Q59.21 14.54 58.81 14.85Q58.41 15.16 58.41 15.71L58.41 15.71Q58.41 16.18 58.84 16.50Q59.28 16.81 60.27 17.10Q61.27 17.40 61.87 17.78Q62.48 18.16 62.76 18.65Q63.04 19.13 63.04 19.79L63.04 19.79Q63.04 20.86 62.22 21.49Q61.40 22.12 60.00 22.12L60.00 22.12Q59.08 22.12 58.30 21.77Q57.52 21.43 57.09 20.83Q56.66 20.22 56.66 19.42Z" fill="#FFFFFF"/><path class="svg__text" d="M92.00 22L89.62 22L89.62 13.60L93.46 13.60Q94.60 13.60 95.44 13.98Q96.28 14.35 96.74 15.06Q97.19 15.76 97.19 16.71L97.19 16.71Q97.19 17.66 96.74 18.35Q96.28 19.05 95.44 19.42Q94.60 19.80 93.46 19.80L93.46 19.80L92.00 19.80L92.00 22ZM92.00 15.47L92.00 17.93L93.32 17.93Q94.05 17.93 94.42 17.61Q94.79 17.29 94.79 16.71L94.79 16.71Q94.79 16.12 94.42 15.80Q94.05 15.47 93.32 15.47L93.32 15.47L92.00 15.47ZM104.32 22L101.95 22L101.95 13.60L105.79 13.60Q106.93 13.60 107.77 13.98Q108.61 14.35 109.07 15.06Q109.52 15.76 109.52 16.71L109.52 16.71Q109.52 17.62 109.09 18.30Q108.67 18.98 107.88 19.36L107.88 19.36L109.69 22L107.14 22L105.62 19.77L104.32 19.77L104.32 22ZM104.32 15.47L104.32 17.93L105.64 17.93Q106.38 17.93 106.75 17.61Q107.12 17.29 107.12 16.71L107.12 16.71Q107.12 16.12 106.75 15.79Q106.38 15.47 105.64 15.47L105.64 15.47L104.32 15.47ZM116.69 22L114.31 22L114.31 13.60L116.69 13.60L116.69 22ZM125.83 22L121.86 22L121.86 13.60L125.83 13.60Q127.22 13.60 128.28 14.12Q129.35 14.63 129.94 15.58Q130.53 16.53 130.53 17.80L130.53 17.80Q130.53 19.07 129.94 20.02Q129.35 20.97 128.28 21.48Q127.22 22 125.83 22L125.83 22ZM124.24 15.50L124.24 20.10L125.74 20.10Q126.82 20.10 127.47 19.49Q128.13 18.88 128.13 17.80L128.13 17.80Q128.13 16.72 127.47 16.11Q126.82 15.50 125.74 15.50L125.74 15.50L124.24 15.50ZM142.00 22L135.26 22L135.26 13.60L141.85 13.60L141.85 15.44L137.61 15.44L137.61 16.85L141.34 16.85L141.34 18.63L137.61 18.63L137.61 20.17L142.00 20.17L142.00 22Z" fill="#FFFFFF" x="88.43"/></svg>