<svg xmlns="http://www.w3.org/2000/svg" width="206.29" height="35" viewBox="0 0 206.29 35"><rect class="svg__rect" x="0" y="0" width="102.79" height="35" fill="#D3A0EA"/><rect class="svg__rect" x="100.79" y="0" width="105.49999999999999" height="35" fill="#A66AC8"/><path class="svg__text" d="M16.25 14.66L13.61 14.66L13.61 13.47L20.38 13.47L20.38 14.66L17.72 14.66L17.72 22L16.25 22L16.25 14.66ZM25.52 22L23.55 13.47L25.02 13.47L26.35 19.88L27.98 13.47L29.22 13.47L30.83 19.89L32.14 13.47L33.61 13.47L31.64 22L30.23 22L28.60 15.77L26.94 22L25.52 22ZM39.25 22L37.77 22L37.77 13.47L39.25 13.47L39.25 22ZM49.41 22L44.06 22L44.06 13.47L45.54 13.47L45.54 20.82L49.41 20.82L49.41 22ZM55.10 22L53.63 22L53.63 13.47L55.10 13.47L55.10 22ZM59.67 18.13L59.67 18.13L59.67 17.46Q59.67 15.53 60.59 14.44Q61.52 13.35 63.18 13.35L63.18 13.35Q64.60 13.35 65.44 14.05Q66.28 14.76 66.45 16.08L66.45 16.08L64.99 16.08Q64.75 14.54 63.21 14.54L63.21 14.54Q62.21 14.54 61.69 15.26Q61.17 15.98 61.16 17.37L61.16 17.37L61.16 18.02Q61.16 19.40 61.74 20.17Q62.32 20.93 63.36 20.93L63.36 20.93Q64.50 20.93 64.98 20.42L64.98 20.42L64.98 18.75L63.22 18.75L63.22 17.62L66.45 17.62L66.45 20.89Q65.99 21.50 65.17 21.81Q64.35 22.12 63.31 22.12L63.31 22.12Q62.23 22.12 61.41 21.63Q60.58 21.14 60.13 20.24Q59.69 19.33 59.67 18.13ZM72.55 22L71.07 22L71.07 13.47L72.55 13.47L72.55 17.02L76.37 17.02L76.37 13.47L77.84 13.47L77.84 22L76.37 22L76.37 18.21L72.55 18.21L72.55 22ZM84.27 14.66L81.63 14.66L81.63 13.47L88.40 13.47L88.40 14.66L85.74 14.66L85.74 22L84.27 22L84.27 14.66Z" fill="#000000"/><path class="svg__text" d="M114.39 21.24L114.39 21.24L115.17 19.49Q115.73 19.86 116.48 20.09Q117.22 20.32 117.94 20.32L117.94 20.32Q119.31 20.32 119.31 19.64L119.31 19.64Q119.31 19.28 118.92 19.11Q118.53 18.93 117.67 18.74L117.67 18.74Q116.72 18.53 116.08 18.30Q115.45 18.06 114.99 17.55Q114.54 17.03 114.54 16.16L114.54 16.16Q114.54 15.39 114.96 14.77Q115.38 14.15 116.21 13.79Q117.05 13.43 118.25 13.43L118.25 13.43Q119.08 13.43 119.89 13.62Q120.69 13.80 121.31 14.17L121.31 14.17L120.57 15.93Q119.37 15.28 118.24 15.28L118.24 15.28Q117.53 15.28 117.21 15.49Q116.89 15.70 116.89 16.04L116.89 16.04Q116.89 16.37 117.27 16.54Q117.66 16.71 118.51 16.89L118.51 16.89Q119.47 17.10 120.10 17.33Q120.73 17.56 121.19 18.07Q121.65 18.58 121.65 19.46L121.65 19.46Q121.65 20.21 121.23 20.83Q120.81 21.44 119.97 21.80Q119.13 22.17 117.93 22.17L117.93 22.17Q116.91 22.17 115.95 21.92Q114.99 21.67 114.39 21.24ZM128.61 22L126.23 22L126.23 13.60L130.07 13.60Q131.21 13.60 132.05 13.98Q132.89 14.35 133.35 15.06Q133.80 15.76 133.80 16.71L133.80 16.71Q133.80 17.66 133.35 18.35Q132.89 19.05 132.05 19.42Q131.21 19.80 130.07 19.80L130.07 19.80L128.61 19.80L128.61 22ZM128.61 15.47L128.61 17.93L129.93 17.93Q130.66 17.93 131.03 17.61Q131.40 17.29 131.40 16.71L131.40 16.71Q131.40 16.12 131.03 15.80Q130.66 15.47 129.93 15.47L129.93 15.47L128.61 15.47ZM139.97 22L137.55 22L141.26 13.60L143.60 13.60L147.32 22L144.85 22L144.19 20.37L140.64 20.37L139.97 22ZM142.41 15.93L141.33 18.61L143.49 18.61L142.41 15.93ZM153.85 22L151.47 22L151.47 13.60L155.31 13.60Q156.46 13.60 157.29 13.98Q158.13 14.35 158.59 15.06Q159.05 15.76 159.05 16.71L159.05 16.71Q159.05 17.62 158.62 18.30Q158.19 18.98 157.40 19.36L157.40 19.36L159.21 22L156.67 22L155.14 19.77L153.85 19.77L153.85 22ZM153.85 15.47L153.85 17.93L155.17 17.93Q155.90 17.93 156.27 17.61Q156.64 17.29 156.64 16.71L156.64 16.71Q156.64 16.12 156.27 15.79Q155.90 15.47 155.17 15.47L155.17 15.47L153.85 15.47ZM166.19 22L163.83 22L163.83 13.60L166.19 13.60L166.19 17.09L169.44 13.60L172.05 13.60L168.63 17.32L172.24 22L169.48 22L167.07 18.95L166.19 19.90L166.19 22ZM182.73 22L176.34 22L176.34 13.60L178.72 13.60L178.72 20.11L182.73 20.11L182.73 22ZM193.89 22L187.15 22L187.15 13.60L193.74 13.60L193.74 15.44L189.50 15.44L189.50 16.85L193.24 16.85L193.24 18.63L189.50 18.63L189.50 20.17L193.89 20.17L193.89 22Z" fill="#FFFFFF" x="113.79"/></svg>