<svg xmlns="http://www.w3.org/2000/svg" width="190.71" height="35" viewBox="0 0 190.71 35"><rect class="svg__rect" x="0" y="0" width="123.19" height="35" fill="#31C4F3"/><rect class="svg__rect" x="121.19" y="0" width="69.52000000000001" height="35" fill="#389AD5"/><path class="svg__text" d="M15.00 22L13.46 22L16.68 13.47L18.01 13.47L21.24 22L19.69 22L18.99 20.01L15.69 20.01L15.00 22ZM17.34 15.28L16.10 18.82L18.58 18.82L17.34 15.28ZM26.67 22L25.19 22L25.19 13.47L28.19 13.47Q29.67 13.47 30.47 14.13Q31.27 14.79 31.27 16.05L31.27 16.05Q31.27 16.90 30.86 17.48Q30.45 18.06 29.71 18.37L29.71 18.37L31.63 21.92L31.63 22L30.04 22L28.33 18.71L26.67 18.71L26.67 22ZM26.67 14.66L26.67 17.52L28.20 17.52Q28.95 17.52 29.37 17.15Q29.79 16.77 29.79 16.11L29.79 16.11Q29.79 15.43 29.40 15.05Q29.01 14.68 28.24 14.66L28.24 14.66L26.67 14.66ZM35.40 18.19L35.40 18.19L35.40 17.39Q35.40 16.19 35.83 15.27Q36.25 14.35 37.05 13.85Q37.85 13.35 38.90 13.35L38.90 13.35Q40.31 13.35 41.18 14.12Q42.04 14.89 42.18 16.29L42.18 16.29L40.70 16.29Q40.60 15.37 40.17 14.96Q39.73 14.55 38.90 14.55L38.90 14.55Q37.94 14.55 37.42 15.26Q36.90 15.96 36.89 17.33L36.89 17.33L36.89 18.09Q36.89 19.47 37.38 20.20Q37.88 20.92 38.83 20.92L38.83 20.92Q39.71 20.92 40.14 20.53Q40.58 20.14 40.70 19.22L40.70 19.22L42.18 19.22Q42.05 20.59 41.17 21.35Q40.29 22.12 38.83 22.12L38.83 22.12Q37.81 22.12 37.04 21.63Q36.26 21.15 35.84 20.26Q35.42 19.37 35.40 18.19ZM47.97 22L46.49 22L46.49 13.47L47.97 13.47L47.97 17.02L51.79 17.02L51.79 13.47L53.26 13.47L53.26 22L51.79 22L51.79 18.21L47.97 18.21L47.97 22ZM69.34 22L63.98 22L63.98 13.47L65.46 13.47L65.46 20.82L69.34 20.82L69.34 22ZM75.03 22L73.55 22L73.55 13.47L75.03 13.47L75.03 22ZM81.32 22L79.84 22L79.84 13.47L81.32 13.47L85.13 19.54L85.13 13.47L86.60 13.47L86.60 22L85.12 22L81.32 15.95L81.32 22ZM91.21 19.16L91.21 19.16L91.21 13.47L92.69 13.47L92.69 19.18Q92.69 20.03 93.12 20.48Q93.55 20.93 94.40 20.93L94.40 20.93Q96.11 20.93 96.11 19.13L96.11 19.13L96.11 13.47L97.58 13.47L97.58 19.17Q97.58 20.53 96.71 21.32Q95.84 22.12 94.40 22.12L94.40 22.12Q92.93 22.12 92.07 21.33Q91.21 20.55 91.21 19.16ZM103.25 22L101.53 22L104.17 17.70L101.59 13.47L103.30 13.47L105.09 16.55L106.88 13.47L108.59 13.47L106.02 17.70L108.65 22L106.92 22L105.09 18.87L103.25 22Z" fill="#FFFFFF"/><path class="svg__text" d="M135.31 18.26L135.31 18.26L135.31 13.60L137.69 13.60L137.69 18.19Q137.69 20.20 139.28 20.20L139.28 20.20Q140.86 20.20 140.86 18.19L140.86 18.19L140.86 13.60L143.21 13.60L143.21 18.26Q143.21 20.13 142.17 21.15Q141.13 22.17 139.26 22.17L139.26 22.17Q137.38 22.17 136.34 21.15Q135.31 20.13 135.31 18.26ZM147.71 21.24L147.71 21.24L148.49 19.49Q149.05 19.86 149.79 20.09Q150.54 20.32 151.26 20.32L151.26 20.32Q152.62 20.32 152.63 19.64L152.63 19.64Q152.63 19.28 152.24 19.11Q151.85 18.93 150.98 18.74L150.98 18.74Q150.03 18.53 149.40 18.30Q148.76 18.06 148.31 17.55Q147.85 17.03 147.85 16.16L147.85 16.16Q147.85 15.39 148.27 14.77Q148.69 14.15 149.53 13.79Q150.36 13.43 151.57 13.43L151.57 13.43Q152.39 13.43 153.20 13.62Q154.00 13.80 154.62 14.17L154.62 14.17L153.89 15.93Q152.69 15.28 151.56 15.28L151.56 15.28Q150.85 15.28 150.52 15.49Q150.20 15.70 150.20 16.04L150.20 16.04Q150.20 16.37 150.59 16.54Q150.97 16.71 151.82 16.89L151.82 16.89Q152.78 17.10 153.41 17.33Q154.04 17.56 154.50 18.07Q154.97 18.58 154.97 19.46L154.97 19.46Q154.97 20.21 154.55 20.83Q154.13 21.44 153.29 21.80Q152.45 22.17 151.25 22.17L151.25 22.17Q150.23 22.17 149.26 21.92Q148.30 21.67 147.71 21.24ZM166.29 22L159.54 22L159.54 13.60L166.13 13.60L166.13 15.44L161.90 15.44L161.90 16.85L165.63 16.85L165.63 18.63L161.90 18.63L161.90 20.17L166.29 20.17L166.29 22ZM173.47 22L171.09 22L171.09 13.60L174.93 13.60Q176.08 13.60 176.91 13.98Q177.75 14.35 178.21 15.06Q178.67 15.76 178.67 16.71L178.67 16.71Q178.67 17.62 178.24 18.30Q177.81 18.98 177.02 19.36L177.02 19.36L178.83 22L176.29 22L174.76 19.77L173.47 19.77L173.47 22ZM173.47 15.47L173.47 17.93L174.79 17.93Q175.52 17.93 175.89 17.61Q176.26 17.29 176.26 16.71L176.26 16.71Q176.26 16.12 175.89 15.79Q175.52 15.47 174.79 15.47L174.79 15.47L173.47 15.47Z" fill="#FFFFFF" x="134.19"/></svg>