<svg xmlns="http://www.w3.org/2000/svg" width="90.51" height="35" viewBox="0 0 90.51 35"><rect class="svg__rect" x="0" y="0" width="90.51" height="35" fill="#419B5A"/><rect class="svg__rect" x="90.51" y="0" width="0" height="35" fill="#3C9AD5"/><path class="svg__text" d="M13.78 19.42L13.78 19.42L15.27 19.42Q15.27 20.15 15.75 20.55Q16.23 20.95 17.12 20.95L17.12 20.95Q17.90 20.95 18.29 20.63Q18.68 20.32 18.68 19.80L18.68 19.80Q18.68 19.24 18.28 18.94Q17.89 18.63 16.85 18.32Q15.82 18.01 15.21 17.63L15.21 17.63Q14.05 16.90 14.05 15.72L14.05 15.72Q14.05 14.69 14.89 14.02Q15.73 13.35 17.07 13.35L17.07 13.35Q17.96 13.35 18.66 13.68Q19.36 14.01 19.75 14.61Q20.15 15.22 20.15 15.96L20.15 15.96L18.68 15.96Q18.68 15.29 18.26 14.91Q17.84 14.54 17.06 14.54L17.06 14.54Q16.33 14.54 15.93 14.85Q15.53 15.16 15.53 15.71L15.53 15.71Q15.53 16.18 15.96 16.50Q16.40 16.81 17.39 17.10Q18.39 17.40 18.99 17.78Q19.60 18.16 19.88 18.65Q20.16 19.13 20.16 19.79L20.16 19.79Q20.16 20.86 19.34 21.49Q18.52 22.12 17.12 22.12L17.12 22.12Q16.20 22.12 15.42 21.77Q14.64 21.43 14.21 20.83Q13.78 20.22 13.78 19.42ZM25.93 22L24.45 22L24.45 13.47L27.71 13.47Q29.14 13.47 29.98 14.21Q30.82 14.96 30.82 16.18L30.82 16.18Q30.82 17.44 30.00 18.13Q29.18 18.83 27.69 18.83L27.69 18.83L25.93 18.83L25.93 22ZM25.93 14.66L25.93 17.64L27.71 17.64Q28.50 17.64 28.92 17.27Q29.33 16.90 29.33 16.19L29.33 16.19Q29.33 15.50 28.91 15.09Q28.49 14.68 27.75 14.66L27.75 14.66L25.93 14.66ZM34.84 18.00L34.84 18.00L34.84 17.52Q34.84 16.28 35.28 15.32Q35.72 14.37 36.53 13.86Q37.33 13.35 38.38 13.35Q39.42 13.35 40.22 13.85Q41.03 14.35 41.47 15.29Q41.91 16.23 41.91 17.48L41.91 17.48L41.91 17.96Q41.91 19.21 41.48 20.16Q41.05 21.10 40.24 21.61Q39.44 22.12 38.39 22.12L38.39 22.12Q37.35 22.12 36.54 21.61Q35.73 21.10 35.28 20.17Q34.84 19.23 34.84 18.00ZM36.32 17.46L36.32 17.96Q36.32 19.36 36.87 20.13Q37.41 20.90 38.39 20.90L38.39 20.90Q39.37 20.90 39.90 20.15Q40.43 19.40 40.43 17.96L40.43 17.96L40.43 17.51Q40.43 16.09 39.90 15.34Q39.36 14.58 38.38 14.58L38.38 14.58Q37.41 14.58 36.87 15.33Q36.33 16.09 36.32 17.46L36.32 17.46ZM48.06 14.66L45.42 14.66L45.42 13.47L52.19 13.47L52.19 14.66L49.53 14.66L49.53 22L48.06 22L48.06 14.66ZM57.51 22L56.04 22L56.04 13.47L57.51 13.47L57.51 22ZM63.81 22L62.32 22L62.32 13.47L67.74 13.47L67.74 14.66L63.81 14.66L63.81 17.20L67.24 17.20L67.24 18.38L63.81 18.38L63.81 22ZM73.94 18.86L71.08 13.47L72.72 13.47L74.69 17.51L76.65 13.47L78.29 13.47L75.43 18.86L75.43 22L73.94 22L73.94 18.86Z" fill="#FFFFFF"/><path class="svg__text" d="" fill="#FFFFFF" x="103.51"/></svg>