<svg xmlns="http://www.w3.org/2000/svg" width="150.81" height="35" viewBox="0 0 150.81 35"><rect class="svg__rect" x="0" y="0" width="93.79" height="35" fill="#3BC4F3"/><rect class="svg__rect" x="91.79" y="0" width="59.02000000000001" height="35" fill="#3C9AD5"/><path class="svg__text" d="M16.25 14.66L13.61 14.66L13.61 13.47L20.38 13.47L20.38 14.66L17.72 14.66L17.72 22L16.25 22L16.25 14.66ZM25.52 22L23.55 13.47L25.02 13.47L26.35 19.88L27.98 13.47L29.22 13.47L30.83 19.89L32.14 13.47L33.61 13.47L31.64 22L30.23 22L28.60 15.77L26.94 22L25.52 22ZM39.25 22L37.77 22L37.77 13.47L39.25 13.47L39.25 22ZM45.74 14.66L43.10 14.66L43.10 13.47L49.87 13.47L49.87 14.66L47.21 14.66L47.21 22L45.74 22L45.74 14.66ZM55.31 14.66L52.67 14.66L52.67 13.47L59.44 13.47L59.44 14.66L56.78 14.66L56.78 22L55.31 22L55.31 14.66ZM68.77 22L63.20 22L63.20 13.47L68.73 13.47L68.73 14.66L64.68 14.66L64.68 17.02L68.18 17.02L68.18 18.19L64.68 18.19L64.68 20.82L68.77 20.82L68.77 22ZM74.45 22L72.97 22L72.97 13.47L75.97 13.47Q77.45 13.47 78.25 14.13Q79.05 14.79 79.05 16.05L79.05 16.05Q79.05 16.90 78.64 17.48Q78.22 18.06 77.49 18.37L77.49 18.37L79.40 21.92L79.40 22L77.81 22L76.10 18.71L74.45 18.71L74.45 22ZM74.45 14.66L74.45 17.52L75.97 17.52Q76.72 17.52 77.15 17.15Q77.57 16.77 77.57 16.11L77.57 16.11Q77.57 15.43 77.18 15.05Q76.79 14.68 76.02 14.66L76.02 14.66L74.45 14.66Z" fill="#FFFFFF"/><path class="svg__text" d="M107.40 22L104.97 22L108.68 13.60L111.02 13.60L114.74 22L112.27 22L111.61 20.37L108.06 20.37L107.40 22ZM109.83 15.93L108.75 18.61L110.91 18.61L109.83 15.93ZM121.27 22L118.89 22L118.89 13.60L122.74 13.60Q123.88 13.60 124.72 13.98Q125.55 14.35 126.01 15.06Q126.47 15.76 126.47 16.71L126.47 16.71Q126.47 17.62 126.04 18.30Q125.61 18.98 124.82 19.36L124.82 19.36L126.63 22L124.09 22L122.57 19.77L121.27 19.77L121.27 22ZM121.27 15.47L121.27 17.93L122.59 17.93Q123.32 17.93 123.69 17.61Q124.07 17.29 124.07 16.71L124.07 16.71Q124.07 16.12 123.69 15.79Q123.32 15.47 122.59 15.47L122.59 15.47L121.27 15.47ZM133.05 15.48L130.46 15.48L130.46 13.60L137.99 13.60L137.99 15.48L135.42 15.48L135.42 22L133.05 22L133.05 15.48Z" fill="#FFFFFF" x="104.79"/></svg>